Coordinates
version=1
nRows=42
nColumns=11
inDegrees=no

Units are S.I. units (second, meters, Newtons, ...)
If the header above contains a line with 'inDegrees', this indicates whether rotational values are in degrees (yes) or radians (no).

endheader
time	pelvis_tilt	pelvis_tx	pelvis_ty	hip_flexion_r	knee_angle_r	ankle_angle_r	hip_flexion_l	knee_angle_l	ankle_angle_l	lumbar_extension
210.01	0.0739731	0.234447	0.904891	0.257728	-0.421962	0.0504556	-0.0286012	-0.863627	0.266932	0
210.02	0.0564609	0.231742	0.904495	0.2728	-0.425292	0.064232	0.0222498	-0.917708	0.215037	0
210.03	0.056763	0.231435	0.904507	0.267819	-0.435389	0.0761064	0.054138	-0.978272	0.168459	0
210.04	0.0584407	0.231673	0.904856	0.260385	-0.442903	0.0897904	0.0837194	-1.03417	0.122565	0
210.05	0.0604247	0.231539	0.905306	0.254426	-0.45333	0.102466	0.111814	-1.08544	0.0790546	0
210.06	0.0603186	0.231124	0.90574	0.249001	-0.460876	0.117303	0.13971	-1.13024	0.0441531	0
210.07	0.0608532	0.231108	0.906535	0.239827	-0.463698	0.131034	0.164324	-1.16801	0.0231583	0
210.08	0.0611224	0.230839	0.907431	0.229886	-0.463934	0.144115	0.188404	-1.20303	0.0260103	0
210.09	0.0795566	0.231307	0.909697	0.19707	-0.47107	0.152988	0.186213	-1.23682	0.0473073	0
210.1	0.0862123	0.233931	0.911038	0.178702	-0.466473	0.159435	0.20159	-1.26196	0.0702898	0
210.11	0.0871447	0.233259	0.912514	0.166968	-0.462725	0.164473	0.221787	-1.27926	0.0789776	0
210.12	0.0881553	0.232466	0.914249	0.157584	-0.463174	0.16591	0.241556	-1.29104	0.0817232	0
210.13	0.0883623	0.231623	0.915981	0.146523	-0.459805	0.172133	0.261852	-1.29887	0.083858	0
210.14	0.0881925	0.23074	0.917433	0.133307	-0.45154	0.180187	0.280461	-1.30025	0.0786171	0
210.15	0.0632205	0.225953	0.91804	0.146129	-0.428775	0.184357	0.329821	-1.29332	0.0744219	0
210.16	0.0616677	0.224999	0.919561	0.135919	-0.422443	0.18461	0.347786	-1.28556	0.0674941	0
210.17	0.0613729	0.224117	0.921251	0.122895	-0.41357	0.185129	0.36239	-1.27152	0.0631773	0
210.18	0.0606372	0.223103	0.922953	0.111639	-0.405583	0.182546	0.376208	-1.25281	0.0637478	0
210.19	0.0593061	0.221986	0.92435	0.100861	-0.397191	0.185231	0.389456	-1.23089	0.0680173	0
210.2	0.0583282	0.220974	0.925569	0.0894543	-0.388898	0.189602	0.400335	-1.20465	0.0701754	0
210.21	0.0439113	0.217394	0.925716	0.0961394	-0.380616	0.18612	0.429265	-1.17553	0.0703744	0
210.22	0.0515337	0.217842	0.927277	0.0731731	-0.374879	0.186612	0.421971	-1.13549	0.0742891	0
210.23	0.051059	0.21708	0.928261	0.0596915	-0.365665	0.191886	0.425638	-1.0953	0.0808906	0
210.24	0.0497833	0.216703	0.928929	0.0487419	-0.358851	0.200012	0.429222	-1.05194	0.0848388	0
210.25	0.0715014	0.220346	0.930513	0.0102168	-0.359167	0.209019	0.401355	-1.00775	0.0806271	0
210.26	0.0508075	0.216466	0.929884	0.0179978	-0.33819	0.212787	0.424942	-0.952209	0.0817244	0
210.27	0.0469632	0.215107	0.929735	0.0115636	-0.333271	0.217759	0.426419	-0.897448	0.0805606	0
210.28	0.0701906	0.21797	0.9309	-0.0249675	-0.341044	0.224664	0.390767	-0.841919	0.075271	0
210.29	0.0730529	0.218008	0.930955	-0.0412621	-0.33515	0.232817	0.37728	-0.776858	0.0704722	0
210.3	0.0723827	0.217502	0.930537	-0.0505304	-0.333783	0.242295	0.369525	-0.713502	0.0638658	0
210.31	0.043894	0.212999	0.928525	-0.0276211	-0.321119	0.246983	0.394475	-0.641129	0.0547662	0
210.32	0.0405872	0.212487	0.927689	-0.0342384	-0.318898	0.25282	0.387228	-0.573245	0.0398629	0
210.33	0.0397377	0.211898	0.926794	-0.0476333	-0.312547	0.260156	0.372363	-0.501583	0.0256561	0
210.34	0.0400385	0.212314	0.925848	-0.0601408	-0.30889	0.270772	0.352688	-0.423082	0.0165573	0
210.35	0.0412108	0.212736	0.924823	-0.0732383	-0.307064	0.284415	0.331213	-0.34525	0.016144	0
210.36	0.0429516	0.213618	0.923803	-0.0871722	-0.304419	0.291654	0.312323	-0.276065	0.0182723	0
210.37	0.0445936	0.214502	0.92275	-0.102733	-0.299106	0.298996	0.296517	-0.216533	0.0241371	0
210.38	0.0440865	0.215562	0.921169	-0.114891	-0.293938	0.308549	0.287006	-0.165921	0.0326994	0
210.39	0.0461329	0.216585	0.919695	-0.130598	-0.290423	0.322314	0.275821	-0.124697	0.0392589	0
210.4	0.0727437	0.220695	0.920127	-0.173397	-0.298516	0.335471	0.236987	-0.0981839	0.0389858	0
210.41	0.0509529	0.218792	0.917547	-0.163584	-0.280522	0.338418	0.253408	-0.0598916	0.0394164	0
210.42	0.077683	0.222771	0.918076	-0.204509	-0.291123	0.347088	0.219313	-0.0544024	0.0389756	0
